<?xml version="1.0" encoding="iso-8859-1"?>
<!-- Uploaded to: SVG Repo, www.svgrepo.com, Generator: SVG Repo Mixer Tools -->
<svg height="20px" width="20px" version="1.1" id="Capa_1" xmlns="http://www.w3.org/2000/svg" xmlns:xlink="http://www.w3.org/1999/xlink" 
	 viewBox="0 0 369.946 369.946" xml:space="preserve">
<g>
	<g>
		<path style="fill:#010002;" d="M215.499,175.647c-2.184,0-4.439-0.251-6.713-0.734l-7.846-1.683l3.878-7.041
			c0.125-0.233,12.787-23.575,4.034-40.497c-4.565-8.825-14.422-14.714-29.357-17.555c0.603,13.479-1.969,40.76-28.259,62.843
			c-14.249,11.97-20.616,31.72-16.618,51.542c2.995,14.869,11.116,26.755,22.364,33.241c0.221-13.3,3.616-37.514,22.561-59.895
			l8.019-9.475l2.387,12.19c3.58,18.265,12.029,45.145,20.556,52.908c8.115-4.308,30.932-18.157,36.66-40.599
			c3.532-13.825,0.012-28.886-10.454-44.853C232.439,170.676,225.524,175.647,215.499,175.647z"/>
		<path style="fill:#010002;" d="M184.973,0C82.981,0,0,82.981,0,184.973c0,101.998,82.981,184.973,184.973,184.973
			s184.973-82.975,184.973-184.973C369.946,82.981,286.965,0,184.973,0z M258.706,213.93c-8.455,32.925-44.722,49.245-46.261,49.919
			l-2.572,1.128l-2.506-1.253c-13.252-6.629-21.916-33.122-26.165-49.865c-15.466,25.21-11.964,50.008-11.922,50.295l1.426,9.41
			l-9.093-2.822c-19.673-6.098-34.142-23.247-38.701-45.861c-4.857-24.106,3.049-48.266,20.639-63.04
			c30.019-25.216,23.617-58.129,23.33-59.52l-1.671-8.067l8.181,0.907c23.366,2.649,38.874,11.092,46.088,25.103
			c7.823,15.198,3.526,32.77-0.34,43.027c8.3-1.927,12.095-9.953,12.137-10.048l4.147-8.986l6.009,7.858
			C257.9,173.648,263.712,194.442,258.706,213.93z"/>
	</g>
</g>
</svg>