<svg xmlns="http://www.w3.org/2000/svg" width="20" height="20" viewBox="0 0 800 800" version="1.1"><path d="M 359.977 166.646 C 354.758 170.997, 353.668 172.203, 351.241 176.316 C 349.067 180, 349 180.933, 349 207.402 C 349 232.568, 349.142 234.819, 350.829 236.345 C 352.289 237.667, 354.800 238, 363.294 238 C 370.303 238, 375.498 238.532, 378.529 239.561 C 381.058 240.420, 384.111 240.982, 385.314 240.811 L 387.500 240.500 387.500 208.500 C 387.500 176.631, 387.490 176.487, 385.180 173.248 C 380.882 167.222, 376.404 164.621, 369.580 164.186 C 363.958 163.828, 363.091 164.050, 359.977 166.646 M 418.966 167.196 C 416.516 169.064, 413.504 172.372, 412.272 174.547 C 410.034 178.498, 410.033 178.523, 410.016 230.039 C 410.001 279.369, 410.084 281.743, 411.971 285.443 C 414.725 290.845, 417.780 293.843, 422.917 296.187 C 429.776 299.316, 436.252 297.657, 442.822 291.087 C 447.988 285.921, 448 285.775, 447.994 231.782 C 447.991 202.021, 447.589 180.072, 447.009 178 C 446.470 176.075, 443.939 172.261, 441.384 169.525 C 436.834 164.653, 436.601 164.543, 430.079 164.174 C 423.783 163.819, 423.178 163.983, 418.966 167.196 M 300.935 190.004 C 298.975 191.104, 296.050 193.381, 294.435 195.065 L 291.500 198.127 291.195 220.208 C 291.027 232.353, 291.252 242.650, 291.695 243.092 C 292.486 243.880, 300.780 241.773, 304.292 239.891 C 305.277 239.363, 309.777 238.693, 314.292 238.402 C 328.509 237.485, 327 239.943, 327 217.693 L 327 198.425 322.108 193.606 C 317.453 189.022, 316.905 188.768, 310.858 188.396 C 305.845 188.087, 303.746 188.427, 300.935 190.004 M 482.882 201 C 480.892 202.052, 477.180 205.231, 474.632 208.064 L 470 213.216 470 248.122 C 470 287.701, 469.636 285.810, 478.631 293 C 487.635 300.198, 492.514 299.672, 501.670 290.515 L 508 284.185 508 248.701 L 508 213.216 503.363 208.058 C 498.455 202.600, 492.588 198.971, 488.790 199.044 C 487.530 199.069, 484.872 199.949, 482.882 201 M 312 259.971 C 311.175 260.440, 308.315 261.594, 305.645 262.535 C 302.975 263.476, 299.375 265.448, 297.645 266.917 C 295.915 268.386, 293.262 270.366, 291.750 271.317 C 290.238 272.268, 289 273.522, 289 274.105 C 289 274.687, 287.480 277.039, 285.622 279.332 C 283.764 281.624, 281.909 284.625, 281.500 286 C 281.090 287.375, 280.248 289.131, 279.628 289.903 C 278.827 290.900, 278.500 304.948, 278.500 338.403 L 278.500 385.500 280.902 389.500 C 283.423 393.697, 310.824 422, 312.367 422 C 312.858 422, 315.789 424.548, 318.880 427.663 L 324.500 433.326 324.799 459.388 C 325.054 481.636, 325.332 485.710, 326.704 487.225 C 327.587 488.201, 329.140 489, 330.155 489 C 331.170 489, 332 489.389, 332 489.863 C 332 490.338, 334.713 491.302, 338.029 492.006 C 341.345 492.710, 344.277 493.640, 344.545 494.073 C 344.813 494.506, 347.612 495.172, 350.766 495.553 C 353.920 495.935, 357.032 496.671, 357.682 497.190 C 358.333 497.708, 364.633 498.595, 371.682 499.160 C 378.732 499.725, 385.281 500.595, 386.236 501.094 C 388.494 502.272, 409.504 502.273, 411.764 501.095 C 412.719 500.597, 419.547 499.700, 426.937 499.101 C 434.327 498.503, 440.627 497.627, 440.937 497.154 C 441.247 496.682, 443.902 495.983, 446.837 495.601 C 449.773 495.220, 452.923 494.518, 453.837 494.041 C 454.752 493.563, 458.641 492.203, 462.480 491.018 C 466.320 489.832, 470.032 488.388, 470.730 487.809 C 471.697 487.007, 472 480.573, 472 460.878 C 472 444.293, 472.359 435, 473 435 C 473.550 435, 474 434.435, 474 433.744 C 474 433.053, 475.238 431.961, 476.750 431.317 C 482.051 429.059, 486.518 426.936, 488.518 425.723 C 491.318 424.025, 498.996 416.676, 498.998 415.691 C 498.999 415.247, 500.319 413.222, 501.930 411.191 C 503.542 409.161, 505.168 405.808, 505.544 403.739 C 505.919 401.670, 506.626 399.731, 507.113 399.430 C 508.551 398.541, 508.247 319.647, 506.800 318.200 C 505.284 316.684, 500.758 316.642, 499.270 318.130 C 497.867 319.533, 480.064 319.600, 477.393 318.212 C 476.352 317.671, 473.157 316.209, 470.292 314.963 C 467.428 313.717, 463.872 311.432, 462.390 309.885 L 459.696 307.073 456.098 309.868 C 451.938 313.099, 444.100 317, 441.768 317 C 440.887 317, 440.007 317.479, 439.812 318.064 C 439.353 319.440, 420.431 319.591, 418.743 318.232 C 418.059 317.681, 415.925 316.898, 414 316.491 C 412.075 316.084, 409.306 314.907, 407.846 313.876 C 406.386 312.844, 404.840 312, 404.410 312 C 403.980 312, 402.587 311.022, 401.314 309.826 L 399 307.651 396.750 309.690 C 393.083 313.014, 385.509 317, 382.862 317 C 381.508 317, 379.874 317.526, 379.231 318.169 C 378.460 318.940, 371.740 319.496, 359.468 319.803 C 339.601 320.301, 338 320.722, 338 325.449 C 338 326.717, 338.624 328.273, 339.387 328.906 C 342.618 331.588, 350.407 334.796, 355.244 335.438 C 358.107 335.818, 360.911 336.485, 361.475 336.920 C 362.039 337.355, 364.693 338.247, 367.373 338.901 C 382.991 342.714, 402.098 358.290, 410.373 373.954 C 414.861 382.451, 417 387.079, 417 388.295 C 417 389.013, 417.414 390.028, 417.919 390.550 C 419.300 391.977, 421 402.536, 421 409.684 L 421 416 411.244 416 C 401.536 416, 401.483 415.987, 400.384 413.250 C 399.777 411.738, 398.720 406.900, 398.035 402.500 C 397.351 398.100, 396.500 394.275, 396.145 394 C 395.790 393.725, 394.375 391.267, 393 388.539 C 390.292 383.164, 374.572 366, 372.357 366 C 371.611 366, 371 365.583, 371 365.073 C 371 364.110, 360.611 359.005, 358.629 358.994 C 358.008 358.990, 356.326 358.375, 354.892 357.627 C 353.458 356.878, 349.789 355.954, 346.739 355.573 C 339.190 354.630, 328.600 349.330, 322.185 343.285 L 316.871 338.277 317.185 320.386 C 317.613 296.058, 314.705 298.210, 347.688 297.812 C 368.440 297.561, 373.990 297.206, 376 296 C 386.162 289.903, 390.466 279.947, 386.250 272.291 C 383.387 267.091, 378.090 261.968, 374.922 261.334 C 373.292 261.008, 371.716 260.350, 371.420 259.871 C 370.726 258.747, 313.983 258.843, 312 259.971" stroke="none" fill="#ec3838" fill-rule="evenodd"/><path d="M 362.500 5.003 C 360.850 5.424, 364.450 5.533, 370.500 5.245 C 376.550 4.957, 381.688 4.559, 381.917 4.361 C 382.713 3.672, 365.482 4.241, 362.500 5.003 M 421 5.039 C 426.225 5.441, 433.200 6.030, 436.500 6.348 C 441.465 6.827, 441.120 6.687, 434.500 5.538 C 430.100 4.775, 423.125 4.186, 419 4.229 L 411.500 4.308 421 5.039 M 459.500 10.570 C 462.250 11.335, 465.175 11.930, 466 11.891 C 466.825 11.853, 465.250 11.195, 462.500 10.430 C 459.750 9.665, 456.825 9.070, 456 9.109 C 455.175 9.147, 456.750 9.805, 459.500 10.570 M 307.150 17.123 C 303.658 18.229, 300.973 19.306, 301.184 19.517 C 301.394 19.728, 304.927 18.834, 309.033 17.531 C 313.140 16.229, 315.825 15.151, 315 15.137 C 314.175 15.124, 310.643 16.017, 307.150 17.123 M 485.967 17.531 C 490.073 18.834, 493.604 19.729, 493.813 19.520 C 494.280 19.054, 481.239 14.968, 479.645 15.081 C 479.015 15.126, 481.860 16.229, 485.967 17.531 M 498.083 21.403 C 498.313 21.624, 503.116 23.632, 508.758 25.864 C 514.401 28.096, 524.188 32.565, 530.508 35.794 C 536.829 39.024, 542 41.370, 542 41.008 C 542 40.095, 514.026 26.668, 505.631 23.551 C 498.936 21.065, 497.232 20.580, 498.083 21.403 M 283.500 25.945 C 281.300 26.986, 279.950 27.841, 280.500 27.845 C 281.864 27.854, 289.755 24.161, 288.500 24.100 C 287.950 24.074, 285.700 24.904, 283.500 25.945 M 273 30.500 C 270.525 31.825, 268.950 32.910, 269.500 32.910 C 270.050 32.910, 272.525 31.825, 275 30.500 C 277.475 29.175, 279.050 28.090, 278.500 28.090 C 277.950 28.090, 275.475 29.175, 273 30.500 M 260 37 C 255.875 39.146, 252.849 40.923, 253.275 40.951 C 254.338 41.018, 268 34.094, 268 33.487 C 268 32.812, 268.329 32.668, 260 37 M 247.656 43.116 C 245.541 44.232, 244.037 45.370, 244.313 45.646 C 244.937 46.270, 250.649 43.376, 251.496 42.007 C 252.307 40.693, 252.177 40.731, 247.656 43.116 M 234.195 51.555 C 227.948 55.761, 227.274 57.166, 233.250 53.522 C 235.588 52.096, 238.171 50.530, 238.992 50.040 C 239.812 49.551, 240.237 48.904, 239.937 48.603 C 239.636 48.302, 237.052 49.631, 234.195 51.555 M 555.012 48.652 C 555.019 49.118, 556.644 50.549, 558.623 51.832 C 560.602 53.114, 562.051 53.654, 561.843 53.030 C 561.365 51.594, 554.996 47.511, 555.012 48.652 M 567.031 56.682 C 567.074 57.779, 572.006 61.328, 572.626 60.707 C 572.895 60.438, 571.739 59.238, 570.058 58.041 C 568.376 56.844, 567.014 56.232, 567.031 56.682 M 216.477 64.613 C 214.289 66.534, 213.400 67.639, 214.500 67.069 C 217.221 65.660, 221.379 62.046, 220.868 61.535 C 220.640 61.307, 218.664 62.692, 216.477 64.613 M 574.056 61.684 C 574.130 62.765, 585.004 71.329, 585.577 70.757 C 585.821 70.512, 583.317 68.187, 580.011 65.590 C 576.705 62.992, 574.025 61.235, 574.056 61.684 M 203.437 75.170 L 200.500 78.341 203.750 76.102 C 205.537 74.871, 207 73.444, 207 72.932 C 207 71.503, 206.604 71.752, 203.437 75.170 M 598.218 82.916 C 604.664 89.086, 612.876 97.309, 616.468 101.189 C 620.061 105.069, 623 107.705, 623 107.046 C 623 105.478, 592.248 74.680, 589 72.996 C 587.625 72.282, 591.773 76.747, 598.218 82.916 M 185.086 92.586 C 177.279 100.637, 171.134 107.468, 171.432 107.765 C 171.729 108.062, 172.949 106.999, 174.142 105.403 C 175.336 103.806, 181.650 97.145, 188.174 90.601 C 194.698 84.056, 199.866 78.532, 199.658 78.325 C 199.451 78.118, 192.894 84.535, 185.086 92.586 M 375.996 94.064 C 340.832 97.803, 302.964 113.306, 274.039 135.805 C 219.460 178.260, 189.234 248.280, 196.402 315.659 C 199.832 347.904, 208.007 373.187, 223.549 399.619 C 239.993 427.585, 265.744 453.772, 293.127 470.376 C 297.321 472.919, 301.259 475, 301.877 475 C 302.655 475, 303 470.625, 303 460.746 L 303 446.491 283.146 426.496 C 261.568 404.763, 258.443 400.259, 256.082 387.488 C 254.346 378.096, 254.641 298.050, 256.447 288.612 C 257.677 282.187, 263.148 268.975, 266.031 265.471 C 266.497 264.905, 267.018 248.930, 267.189 229.971 L 267.500 195.500 270.804 188.743 C 280.606 168.700, 303.086 159.448, 323.460 167.071 C 326.583 168.239, 329.237 169.039, 329.359 168.848 C 329.480 168.656, 330.655 166.129, 331.970 163.230 C 334.661 157.298, 343.378 148.378, 349.575 145.217 C 364.218 137.746, 379.305 138.759, 393.256 148.150 L 399.013 152.024 404.023 148.578 C 421.739 136.391, 443.713 137.976, 458.224 152.487 C 464.376 158.639, 467.648 164.385, 469.739 172.705 C 470.678 176.442, 471.509 179.625, 471.584 179.778 C 471.660 179.931, 473.023 179.552, 474.611 178.936 C 476.200 178.320, 480.088 177.441, 483.252 176.984 C 503.365 174.073, 523.162 186.555, 529.020 205.840 C 531.019 212.421, 531.053 214.393, 530.777 308.525 L 530.496 404.500 528.293 410.275 C 522.489 425.492, 513.148 437.570, 501.485 444.936 L 495 449.031 495 462.015 C 495 469.157, 495.298 475, 495.662 475 C 496.770 475, 505.123 469.978, 512 465.177 C 539.030 446.308, 561.031 422.128, 576.308 394.500 C 590.484 368.864, 597.730 344.234, 602.279 306.221 C 603.103 299.334, 603.092 294.180, 602.235 286.221 C 598.953 255.712, 592.510 231.474, 581.509 208.250 C 551.771 145.474, 488.797 100.900, 420.144 94.035 C 408.410 92.862, 387.169 92.876, 375.996 94.064 M 639 128.359 C 639 128.740, 641.475 132.749, 644.500 137.267 C 647.525 141.785, 650 145.031, 650 144.479 C 650 143.927, 647.723 140.116, 644.941 136.012 C 639.429 127.881, 639 127.328, 639 128.359 M 654.571 153.566 C 660.590 163.748, 666.035 174.691, 670.919 186.428 C 675.151 196.596, 684.942 225.908, 685.079 228.819 C 685.122 229.743, 685.369 229.985, 685.627 229.356 C 686.896 226.260, 674.982 191.952, 666.403 174 C 660.151 160.915, 651.842 146.008, 650.799 146.003 C 650.413 146.001, 652.111 149.405, 654.571 153.566 M 134.065 161.870 C 132.379 165.210, 131.022 168.518, 131.049 169.221 C 131.076 169.925, 132.680 167.417, 134.614 163.648 C 136.548 159.880, 137.905 156.572, 137.631 156.297 C 137.356 156.022, 135.751 158.530, 134.065 161.870 M 128.274 174.250 C 126.835 176.101, 120.792 191.125, 121.286 191.620 C 121.520 191.853, 122.517 189.897, 123.501 187.272 C 124.486 184.648, 126.358 180.363, 127.662 177.750 C 129.981 173.106, 130.218 171.747, 128.274 174.250 M 114.612 208.624 C 113.726 211.227, 113.033 213.839, 113.073 214.428 C 113.113 215.018, 114.012 213.061, 115.070 210.080 C 116.128 207.099, 116.821 204.487, 116.609 204.276 C 116.398 204.065, 115.499 206.021, 114.612 208.624 M 688.621 244 C 688.942 246.475, 690.041 253.450, 691.064 259.500 C 692.602 268.606, 692.829 269.294, 692.377 263.500 C 692.076 259.650, 690.977 252.675, 689.934 248 C 688.891 243.325, 688.300 241.525, 688.621 244 M 103.462 255.462 C 103.075 258.558, 102.974 261.308, 103.238 261.572 C 103.502 261.836, 104.018 259.502, 104.385 256.385 C 104.751 253.268, 104.851 250.518, 104.608 250.274 C 104.364 250.031, 103.848 252.365, 103.462 255.462 M 101.336 277 C 101.336 281.125, 101.513 282.813, 101.728 280.750 C 101.944 278.688, 101.944 275.313, 101.728 273.250 C 101.513 271.188, 101.336 272.875, 101.336 277 M 692.785 275.750 C 693.303 283.967, 693.723 284.745, 693.864 277.750 C 693.939 274.038, 693.659 271, 693.243 271 C 692.826 271, 692.620 273.137, 692.785 275.750 M 100.392 299 C 100.392 306.425, 100.549 309.462, 100.742 305.750 C 100.934 302.038, 100.934 295.962, 100.742 292.250 C 100.549 288.538, 100.392 291.575, 100.392 299 M 693.500 299 C 693.500 305.600, 693.837 311, 694.250 311 C 694.663 311, 695 305.600, 695 299 C 695 292.400, 694.663 287, 694.250 287 C 693.837 287, 693.500 292.400, 693.500 299 M 106.166 344.500 C 106.153 346.629, 108.731 355.192, 108.876 353.500 C 108.923 352.950, 108.335 350.250, 107.570 347.500 C 106.805 344.750, 106.173 343.400, 106.166 344.500 M 687.154 348.154 C 686.501 350.984, 686.148 353.481, 686.370 353.704 C 686.593 353.926, 687.326 351.809, 688 349 C 688.674 346.191, 689.027 343.693, 688.783 343.450 C 688.540 343.207, 687.807 345.324, 687.154 348.154 M 678.977 375.683 C 675.213 387.434, 665.547 410.864, 655.640 432.250 C 653.666 436.512, 652.290 440, 652.583 440 C 654.762 440, 682.159 373.825, 680.618 372.284 C 680.388 372.054, 679.649 373.584, 678.977 375.683 M 118.644 385.996 C 119 387.369, 120.126 390.294, 121.147 392.496 C 122.168 394.698, 122.712 395.377, 122.356 394.004 C 122 392.631, 120.874 389.706, 119.853 387.504 C 118.832 385.302, 118.288 384.623, 118.644 385.996 M 123 397.258 C 123 398.358, 128.853 412.433, 134.942 425.972 C 138.274 433.382, 141 439.570, 141 439.722 C 141 439.875, 141.456 440, 142.013 440 C 142.569 440, 141.498 436.962, 139.631 433.250 C 137.764 429.538, 133.425 419.975, 129.988 412 C 123.960 398.010, 123 395.985, 123 397.258 M 151.552 460.102 C 153.519 464.009, 155.346 466.987, 155.613 466.720 C 156.277 466.056, 149.768 453, 148.773 453 C 148.334 453, 149.584 456.196, 151.552 460.102 M 160.971 477.576 C 168.963 492.158, 188.198 524.482, 189.786 526 C 191.210 527.361, 191.215 527.269, 189.841 525 C 182.159 512.310, 171.077 493.292, 165.493 483.212 C 161.748 476.453, 158.222 470.637, 157.657 470.288 C 157.091 469.938, 158.583 473.218, 160.971 477.576 M 617.725 503.263 C 616.827 505.043, 614.684 508.863, 612.963 511.750 C 611.243 514.638, 610.054 517, 610.322 517 C 611.096 517, 620.292 500.959, 619.801 500.467 C 619.557 500.224, 618.623 501.482, 617.725 503.263 M 573 574.500 C 570.216 578.625, 568.164 582, 568.439 582 C 568.714 582, 571.216 578.625, 574 574.500 C 576.784 570.375, 578.836 567, 578.561 567 C 578.286 567, 575.784 570.375, 573 574.500 M 223 577.500 C 224.703 579.975, 226.321 582, 226.596 582 C 226.871 582, 225.703 579.975, 224 577.500 C 222.297 575.025, 220.679 573, 220.404 573 C 220.129 573, 221.297 575.025, 223 577.500 M 557.853 596.718 C 554.989 600.963, 547.078 612.266, 540.275 621.837 C 533.471 631.407, 528.068 639.401, 528.268 639.601 C 528.467 639.801, 535.775 629.735, 544.507 617.232 C 564.614 588.443, 564.237 589, 563.599 589 C 563.303 589, 560.717 592.473, 557.853 596.718 M 245.977 611.250 C 247.693 613.862, 249.315 616, 249.583 616 C 250.367 616, 248.310 612.741, 245.479 609.500 C 243.256 606.956, 243.332 607.221, 245.977 611.250 M 255.915 625.750 C 256.458 626.712, 258.084 628.850, 259.530 630.500 C 261.520 632.771, 261.370 632.345, 258.910 628.750 C 255.699 624.055, 254.005 622.359, 255.915 625.750 M 304.500 691 C 307.039 694.300, 309.342 697, 309.617 697 C 309.892 697, 308.039 694.300, 305.500 691 C 302.961 687.700, 300.658 685, 300.383 685 C 300.108 685, 301.961 687.700, 304.500 691 M 314.198 703.750 C 315.027 704.712, 320.107 711.125, 325.487 718 C 334.097 729.002, 340.705 736.806, 337.341 732 C 334.030 727.270, 313.754 702, 313.269 702 C 312.951 702, 313.368 702.788, 314.198 703.750 M 461.858 726.250 C 457.325 731.888, 449.512 741.450, 444.494 747.500 C 435.333 758.546, 433.488 761, 434.344 761 C 434.598 761, 441.468 752.788, 449.609 742.750 C 470.996 716.382, 471.296 716, 470.670 716 C 470.355 716, 466.390 720.612, 461.858 726.250 M 429.133 766.133 C 427.293 768.326, 425.984 770.318, 426.226 770.560 C 426.468 770.801, 428.136 769.170, 429.933 766.933 C 434.190 761.637, 433.493 760.940, 429.133 766.133 M 411.996 786.504 C 410.707 787.877, 410.110 789, 410.671 789 C 411.948 789, 415.495 785.162, 414.831 784.498 C 414.562 784.228, 413.286 785.131, 411.996 786.504 M 390.567 796.109 C 391.928 798.311, 404 798.220, 404 796.007 C 404 795.549, 402.659 795.680, 401.020 796.299 C 398.869 797.110, 396.929 797.127, 394.052 796.359 C 391.859 795.774, 390.291 795.661, 390.567 796.109" stroke="none" fill="#ece5dd" fill-rule="evenodd"/><path d="M 378 5.068 C 322.034 8.234, 267.477 28.516, 219.500 63.992 C 176.177 96.027, 140.575 143.250, 120.918 194.752 C 108.150 228.206, 101.942 260.857, 101.667 296 C 101.493 318.214, 102.631 326.817, 109.001 351.406 C 116.302 379.591, 125.030 402.163, 143.449 440.500 C 183.377 523.601, 264.313 642.562, 360.494 759.514 C 373.140 774.892, 385.290 789.355, 387.494 791.655 C 392.163 796.528, 395.706 797.704, 400.970 796.127 C 404.838 794.968, 407.277 792.210, 447.500 743.500 C 470.265 715.932, 515.611 656.196, 541.842 619.221 C 615.252 515.743, 667.271 420.209, 684.353 357.500 C 692.262 328.467, 694.274 311.230, 692.869 284.546 C 690.688 243.121, 680.904 206.122, 662.246 168.753 C 614.611 73.344, 520.163 10.905, 414.500 4.971 C 396.882 3.982, 397.219 3.981, 378 5.068 M 371.500 30.536 C 337.252 34.283, 309.619 41.999, 280.500 55.946 C 203.989 92.591, 148.874 163.002, 132.125 245.500 C 127.777 266.917, 126.714 277.090, 126.692 297.500 C 126.670 317.391, 127.787 325.679, 133.428 347.500 C 153.214 424.034, 226.384 547.774, 332.408 684 C 368.017 729.752, 395.940 764.041, 397.493 763.924 C 398.724 763.830, 420.316 737.593, 445.160 706 C 529.517 598.728, 590.910 506.547, 627.976 431.500 C 645.712 395.591, 656.085 368.943, 662.525 342.742 C 667.171 323.841, 668.289 314.968, 668.227 297.500 C 667.949 219.721, 632.700 144.640, 572.399 93.385 C 517.571 46.783, 441.243 22.904, 371.500 30.536 M 366.500 68.612 C 316.342 74.940, 267.619 100.062, 231.508 138.215 C 203.688 167.608, 186.154 198.699, 175.524 237.482 C 169.697 258.744, 168.508 268.575, 168.507 295.500 C 168.505 320.825, 169.403 330.180, 173.506 347.595 C 187.036 405.018, 221.692 454.762, 271.234 487.871 C 313.329 516.003, 366.249 529.473, 417 524.974 C 461.377 521.040, 505 503.845, 539.360 476.745 C 559.376 460.958, 579.807 438.049, 593.246 416.324 C 628.680 359.040, 636.689 287.628, 614.966 222.657 C 610.143 208.233, 598.413 183.934, 590.269 171.500 C 571.283 142.512, 542.596 115.226, 512.368 97.406 C 488.458 83.310, 455.521 72.201, 426.699 68.511 C 412.106 66.643, 381.704 66.694, 366.500 68.612 M 383.500 92.585 C 381.850 92.821, 375.425 93.710, 369.222 94.561 C 299.020 104.194, 236.543 153.489, 209.492 220.589 C 205.016 231.692, 199.612 250.991, 197.337 264 C 194.739 278.852, 194.739 314.148, 197.337 329 C 207.205 385.420, 237.165 432.477, 284 465.120 C 290.560 469.692, 301.211 476, 302.372 476 C 302.717 476, 303 469.113, 303 460.695 L 303 445.391 283.971 426.576 C 266.181 408.986, 264.666 407.199, 260.721 399.130 L 256.500 390.500 256.176 342 C 255.950 308.057, 256.199 291.849, 257.006 288 C 257.640 284.975, 260.110 278.436, 262.495 273.470 L 266.831 264.439 267.235 231.470 C 267.684 194.888, 267.865 193.732, 274.766 183.222 C 285.137 167.427, 305.721 160.962, 323.784 167.826 L 328.988 169.803 332.239 163.652 C 336.610 155.381, 343.127 149.048, 351.512 144.920 C 358.085 141.683, 359.022 141.500, 368.979 141.501 C 378.402 141.502, 380.126 141.793, 385.500 144.299 C 388.800 145.838, 393.173 148.434, 395.218 150.070 L 398.936 153.043 403.832 149.525 C 413.092 142.872, 417.308 141.532, 429.021 141.515 C 438.992 141.501, 439.905 141.679, 446.488 144.920 C 450.309 146.800, 455.549 150.454, 458.134 153.039 C 464.638 159.543, 467.555 165.526, 470.415 178.236 L 471.031 180.971 475.265 179.236 C 478.330 177.979, 482.262 177.506, 489.500 177.521 C 498.688 177.540, 500.028 177.800, 506 180.724 C 514.336 184.804, 518.928 188.667, 523.251 195.234 C 530.937 206.910, 530.500 200.258, 530.500 305.500 L 530.500 399.500 528.190 407.500 C 523.834 422.583, 513.643 436.500, 500.979 444.659 L 495.017 448.500 495.009 461.750 C 495.004 469.423, 495.398 475, 495.946 475 C 496.467 475, 499.602 473.412, 502.914 471.471 C 523.110 459.634, 550.412 434.240, 564.163 414.500 C 582.584 388.056, 593.564 361.506, 599.711 328.538 C 603.016 310.815, 603.971 284.641, 601.650 275.392 C 600.837 272.151, 599.644 266.125, 599 262 C 592.684 221.568, 570.434 179.312, 540.104 150.150 C 508.797 120.049, 471.146 101.239, 428.500 94.394 C 419.619 92.968, 389.329 91.751, 383.500 92.585 M 356.992 167.604 C 348.074 175.946, 348 176.273, 348 207.514 C 348 241.079, 346.664 238.586, 365 239.226 C 373.683 239.528, 378.693 240.176, 381.406 241.345 C 385.054 242.917, 385.433 242.918, 387.156 241.359 C 388.873 239.805, 388.999 237.557, 388.984 208.595 C 388.968 178.264, 388.912 177.404, 386.734 173.595 C 385.505 171.447, 382.779 168.304, 380.677 166.611 C 377.335 163.920, 375.926 163.485, 369.497 163.160 L 362.140 162.788 356.992 167.604 M 420.500 164.569 C 416.322 166.738, 412.372 170.696, 410.546 174.544 C 409.212 177.355, 409 185.026, 409 230.453 C 409 282.355, 409.030 283.156, 411.131 286.802 C 413.753 291.353, 420.911 297.215, 425.212 298.332 C 428.898 299.290, 437 298.332, 437 296.939 C 437 296.422, 437.584 296, 438.297 296 C 440.520 296, 446.599 288.716, 448.339 283.967 C 449.801 279.975, 450 273.663, 450 231.154 C 450 175.070, 450.164 176.283, 441.462 168.052 C 436.203 163.078, 436.022 163, 429.810 163.006 C 426.061 163.010, 422.282 163.644, 420.500 164.569 M 298.794 189.868 C 296.206 191.536, 292.943 194.714, 291.544 196.930 C 289.034 200.907, 289 201.231, 289 221.325 C 289 246.518, 288.897 246.312, 299.557 242.440 C 304.182 240.761, 309.663 239.710, 315.974 239.294 C 329.219 238.420, 328.925 238.905, 328.967 217.904 C 329.004 199.293, 328.668 198.006, 322.108 191.604 C 318.341 187.927, 317.703 187.682, 310.808 187.272 C 304.005 186.867, 303.175 187.046, 298.794 189.868 M 482.500 199.565 C 478.646 201.560, 472.240 207.728, 470.418 211.200 C 469.273 213.380, 469 220.576, 469 248.500 C 469 287.618, 468.680 285.829, 477.031 293.338 C 485.411 300.872, 492.562 300.897, 500.878 293.420 C 509.256 285.888, 509 287.307, 509 248.333 C 509 211.014, 509.203 212.458, 503.001 205.665 C 496.499 198.543, 488.864 196.271, 482.500 199.565 M 312 258.889 C 312 259.377, 310.494 260.060, 308.654 260.405 C 306.813 260.750, 303.528 261.893, 301.352 262.944 C 296.931 265.080, 284 277.383, 284 279.453 C 284 280.186, 283.438 281.002, 282.750 281.266 C 282.063 281.530, 280.600 284.390, 279.500 287.623 C 277.613 293.168, 277.500 296.126, 277.500 340 L 277.500 386.500 280.136 390.550 C 281.586 392.777, 291.711 403.274, 302.636 413.875 C 313.561 424.477, 323.047 434.129, 323.715 435.325 C 324.574 436.865, 324.939 444.829, 324.965 462.595 C 325.005 491.228, 324.580 489.829, 333.895 492.007 C 336.862 492.701, 340.462 493.881, 341.895 494.628 C 343.328 495.376, 345.647 495.990, 347.050 495.994 C 348.452 495.997, 350.027 496.377, 350.550 496.839 C 351.731 497.882, 363.536 500, 368.165 500 C 370.054 500, 372.162 500.563, 372.850 501.250 C 373.783 502.183, 380.413 502.500, 399 502.500 C 417.587 502.500, 424.217 502.183, 425.150 501.250 C 425.838 500.562, 427.998 499.999, 429.950 499.999 C 435.089 499.997, 456.623 495.459, 458.500 493.982 C 459.050 493.550, 461.525 492.665, 464 492.016 C 473.572 489.508, 473 491.359, 473 462.911 C 473 445.790, 473.368 437.178, 474.163 435.684 C 475.716 432.768, 477.877 431.261, 481.500 430.567 C 488.808 429.166, 505.266 412.305, 506.509 404.944 C 506.875 402.781, 507.585 400.757, 508.087 400.446 C 508.614 400.121, 509 382.617, 509 359.096 C 509 311.485, 509.731 314.619, 499 316.223 C 495.425 316.758, 491.694 317.616, 490.709 318.131 C 489.724 318.646, 488.375 318.732, 487.710 318.321 C 487.046 317.910, 484.015 317.281, 480.975 316.923 C 474.377 316.145, 464.801 311.834, 462.131 308.439 C 459.729 305.386, 459.571 305.394, 455.144 308.820 C 449.358 313.298, 443.095 316.090, 437.593 316.645 C 434.792 316.927, 431.478 317.653, 430.230 318.259 C 428.546 319.075, 427.655 319.055, 426.780 318.180 C 426.131 317.531, 424.182 317, 422.449 317 C 416.556 317, 409.442 314.119, 403.250 309.225 L 399 305.866 394.750 309.194 C 388.141 314.370, 384.939 315.794, 378.200 316.557 C 374.765 316.945, 371.714 317.654, 371.419 318.132 C 371.123 318.609, 364.003 319, 355.596 319 C 342.057 319, 340.121 319.209, 338.655 320.829 C 336.336 323.392, 336.596 327.278, 339.250 329.727 C 342.479 332.707, 349.701 335.720, 355.500 336.508 C 358.250 336.882, 360.950 337.551, 361.500 337.996 C 362.050 338.441, 364.525 339.325, 367 339.961 C 372.991 341.501, 377.184 343.489, 384.992 348.497 C 392.427 353.265, 405.150 366.389, 408.190 372.425 C 409.319 374.666, 410.736 377.115, 411.340 377.866 C 412.495 379.304, 414.416 384.135, 416.165 390 C 416.738 391.925, 417.636 394.026, 418.159 394.669 C 418.682 395.312, 419.198 400.037, 419.305 405.169 L 419.500 414.500 411.187 414.500 C 403.341 414.500, 402.799 414.359, 401.543 412 C 400.811 410.625, 399.734 406.340, 399.149 402.479 C 397.540 391.863, 391.821 381.943, 381.848 372.471 C 372.871 363.945, 365.213 359.212, 357.500 357.421 C 355.850 357.038, 354.050 356.387, 353.500 355.974 C 352.950 355.562, 350.025 354.914, 347 354.535 C 341.203 353.809, 327.146 347.543, 326.286 345.302 C 326.011 344.586, 325.238 344, 324.567 344 C 323.234 344, 320.217 340.782, 318.250 337.264 C 317.418 335.774, 317 330.396, 317 321.167 C 317 307.257, 317.868 303.014, 321.297 300.168 C 322.074 299.523, 332.451 299.007, 348.526 298.813 C 372.542 298.524, 374.722 298.349, 377.452 296.503 C 390.951 287.369, 392.683 274.657, 381.838 264.318 C 375.733 258.499, 372.681 258.031, 340.750 258.015 C 324.639 258.006, 312 258.391, 312 258.889" stroke="none" fill="#070605" fill-rule="evenodd"/><path d="M 371.500 30.536 C 337.252 34.283, 309.619 41.999, 280.500 55.946 C 203.989 92.591, 148.874 163.002, 132.125 245.500 C 127.777 266.917, 126.714 277.090, 126.692 297.500 C 126.670 317.391, 127.787 325.679, 133.428 347.500 C 153.214 424.034, 226.384 547.774, 332.408 684 C 368.017 729.752, 395.940 764.041, 397.493 763.924 C 398.724 763.830, 420.316 737.593, 445.160 706 C 529.517 598.728, 590.910 506.547, 627.976 431.500 C 645.712 395.591, 656.085 368.943, 662.525 342.742 C 667.171 323.841, 668.289 314.968, 668.227 297.500 C 667.949 219.721, 632.700 144.640, 572.399 93.385 C 517.571 46.783, 441.243 22.904, 371.500 30.536 M 366.500 68.612 C 316.342 74.940, 267.619 100.062, 231.508 138.215 C 203.688 167.608, 186.154 198.699, 175.524 237.482 C 169.697 258.744, 168.508 268.575, 168.507 295.500 C 168.505 320.825, 169.403 330.180, 173.506 347.595 C 187.036 405.018, 221.692 454.762, 271.234 487.871 C 313.329 516.003, 366.249 529.473, 417 524.974 C 461.377 521.040, 505 503.845, 539.360 476.745 C 559.376 460.958, 579.807 438.049, 593.246 416.324 C 628.680 359.040, 636.689 287.628, 614.966 222.657 C 610.143 208.233, 598.413 183.934, 590.269 171.500 C 571.283 142.512, 542.596 115.226, 512.368 97.406 C 488.458 83.310, 455.521 72.201, 426.699 68.511 C 412.106 66.643, 381.704 66.694, 366.500 68.612 M 182.462 96.250 L 177.500 101.500 182.750 96.538 C 185.637 93.808, 188 91.446, 188 91.288 C 188 90.541, 187.074 91.372, 182.462 96.250 M 392.292 92.742 C 396.027 92.935, 401.877 92.934, 405.292 92.739 C 408.706 92.545, 405.650 92.387, 398.500 92.389 C 391.350 92.390, 388.556 92.550, 392.292 92.742 M 366.250 140.716 C 367.762 140.945, 370.238 140.945, 371.750 140.716 C 373.262 140.487, 372.025 140.300, 369 140.300 C 365.975 140.300, 364.738 140.487, 366.250 140.716 M 426.250 140.716 C 427.762 140.945, 430.238 140.945, 431.750 140.716 C 433.262 140.487, 432.025 140.300, 429 140.300 C 425.975 140.300, 424.738 140.487, 426.250 140.716 M 254 152.500 C 251.571 154.975, 249.809 157, 250.084 157 C 250.359 157, 252.571 154.975, 255 152.500 C 257.429 150.025, 259.191 148, 258.916 148 C 258.641 148, 256.429 150.025, 254 152.500 M 356.992 167.604 C 348.074 175.946, 348 176.273, 348 207.514 C 348 241.070, 346.663 238.574, 365 239.251 C 371.875 239.505, 378.400 240.036, 379.500 240.432 L 381.500 241.151 379.500 239.843 C 378.213 239.001, 373.042 238.405, 365 238.171 C 355.483 237.895, 352.082 237.436, 350.750 236.249 C 349.164 234.836, 349 232.130, 349 207.402 C 349 180.944, 349.068 179.999, 351.239 176.307 C 354.036 171.552, 360.752 165.168, 363.804 164.363 C 367.884 163.288, 375.624 164.596, 378.875 166.911 C 380.596 168.136, 383.241 170.760, 384.752 172.741 L 387.500 176.342 387.500 208.410 L 387.500 240.479 384.500 241.017 C 381.967 241.471, 381.795 241.671, 383.395 242.302 C 384.626 242.787, 385.939 242.460, 387.145 241.369 C 388.877 239.802, 388.999 237.624, 388.984 208.595 C 388.968 178.264, 388.912 177.404, 386.734 173.595 C 385.505 171.447, 382.779 168.304, 380.677 166.611 C 377.335 163.920, 375.926 163.485, 369.497 163.160 L 362.140 162.788 356.992 167.604 M 420.500 164.569 C 416.322 166.738, 412.372 170.696, 410.546 174.544 C 409.212 177.355, 409 185.026, 409 230.453 C 409 282.355, 409.030 283.156, 411.131 286.802 C 413.753 291.353, 420.911 297.215, 425.212 298.332 C 428.898 299.290, 437 298.332, 437 296.939 C 437 296.422, 437.584 296, 438.297 296 C 440.520 296, 446.599 288.716, 448.339 283.967 C 449.801 279.975, 450 273.663, 450 231.154 C 450 175.070, 450.164 176.283, 441.462 168.052 C 436.203 163.078, 436.022 163, 429.810 163.006 C 426.061 163.010, 422.282 163.644, 420.500 164.569 M 418.966 167.196 C 416.516 169.064, 413.504 172.372, 412.272 174.547 C 410.034 178.498, 410.033 178.523, 410.016 230.039 C 410.001 279.369, 410.084 281.743, 411.971 285.443 C 414.725 290.845, 417.780 293.843, 422.917 296.187 C 429.776 299.316, 436.252 297.657, 442.822 291.087 C 447.988 285.921, 448 285.775, 447.994 231.782 C 447.991 202.021, 447.589 180.072, 447.009 178 C 446.470 176.075, 443.939 172.261, 441.384 169.525 C 436.834 164.653, 436.601 164.543, 430.079 164.174 C 423.783 163.819, 423.178 163.983, 418.966 167.196 M 298.794 189.868 C 296.206 191.536, 292.943 194.714, 291.544 196.930 C 289.034 200.907, 289 201.231, 289 221.325 C 289 239.509, 289.189 241.861, 290.763 243.286 C 292.372 244.742, 292.945 244.744, 297.300 243.310 C 299.925 242.446, 301.889 241.555, 301.664 241.330 C 301.439 241.106, 299.292 241.598, 296.892 242.425 C 294.492 243.252, 292.160 243.560, 291.709 243.109 C 291.258 242.658, 291.027 232.353, 291.195 220.208 L 291.500 198.127 294.480 195.019 C 299.530 189.751, 304.972 187.614, 311.597 188.298 C 316.738 188.828, 317.808 189.371, 322.159 193.657 C 324.822 196.279, 327 197.973, 327 197.421 C 327 196.868, 325.003 194.457, 322.563 192.062 C 318.283 187.861, 317.868 187.692, 310.813 187.272 C 304.004 186.867, 303.176 187.046, 298.794 189.868 M 482.500 199.565 C 478.646 201.560, 472.240 207.728, 470.418 211.200 C 469.273 213.380, 469 220.576, 469 248.500 C 469 287.618, 468.680 285.829, 477.031 293.338 C 485.411 300.872, 492.562 300.897, 500.878 293.420 C 509.256 285.888, 509 287.307, 509 248.333 C 509 211.014, 509.203 212.458, 503.001 205.665 C 496.499 198.543, 488.864 196.271, 482.500 199.565 M 327 217.500 C 327 229.657, 327.347 235.904, 328 235.500 C 328.605 235.126, 329 228.009, 329 217.500 C 329 206.991, 328.605 199.874, 328 199.500 C 327.347 199.096, 327 205.343, 327 217.500 M 482.882 201 C 480.892 202.052, 477.180 205.231, 474.632 208.064 L 470 213.216 470 248.122 C 470 287.701, 469.636 285.810, 478.631 293 C 487.635 300.198, 492.514 299.672, 501.670 290.515 L 508 284.185 508 248.701 L 508 213.216 503.363 208.058 C 498.455 202.600, 492.588 198.971, 488.790 199.044 C 487.530 199.069, 484.872 199.949, 482.882 201 M 315.594 238.096 C 310.146 238.545, 305.286 239.314, 304.795 239.805 C 304.271 240.329, 305.885 240.372, 308.701 239.908 C 311.341 239.474, 316.313 239.092, 319.750 239.060 C 323.210 239.027, 326 238.554, 326 238 C 326 237.450, 325.887 237.063, 325.750 237.140 C 325.613 237.217, 321.042 237.647, 315.594 238.096 M 312 258.889 C 312 259.377, 310.494 260.060, 308.654 260.405 C 306.813 260.750, 303.528 261.893, 301.352 262.944 C 296.931 265.080, 284 277.383, 284 279.453 C 284 280.186, 283.438 281.002, 282.750 281.266 C 282.063 281.530, 280.600 284.390, 279.500 287.623 C 277.613 293.168, 277.500 296.126, 277.500 340 L 277.500 386.500 280.136 390.550 C 281.586 392.777, 291.711 403.274, 302.636 413.875 C 313.561 424.477, 323.081 434.129, 323.792 435.325 C 325.056 437.454, 325.069 437.448, 324.402 435.022 C 323.710 432.505, 314.001 422, 312.367 422 C 310.824 422, 283.423 393.697, 280.902 389.500 L 278.500 385.500 278.500 338.403 C 278.500 304.948, 278.827 290.900, 279.628 289.903 C 280.248 289.131, 281.090 287.375, 281.500 286 C 281.909 284.625, 283.764 281.624, 285.622 279.332 C 287.480 277.039, 289 274.687, 289 274.105 C 289 273.522, 290.238 272.268, 291.750 271.317 C 293.262 270.366, 295.915 268.386, 297.645 266.917 C 299.375 265.448, 302.975 263.476, 305.645 262.534 C 308.315 261.593, 311.281 260.413, 312.236 259.911 C 314.456 258.747, 370.702 258.708, 371.420 259.871 C 371.716 260.350, 373.292 261.008, 374.922 261.334 C 378.090 261.968, 383.387 267.091, 386.250 272.291 C 390.466 279.947, 386.162 289.903, 376 296 C 373.990 297.206, 368.440 297.561, 347.688 297.812 C 324.206 298.096, 321.710 298.290, 320.037 299.963 C 317.891 302.109, 316.158 306.638, 317.893 305.566 C 318.502 305.190, 319 304.303, 319 303.596 C 319 302.889, 319.791 301.594, 320.759 300.718 C 322.252 299.367, 326.442 299.079, 348.509 298.813 C 372.542 298.524, 374.722 298.350, 377.452 296.503 C 390.951 287.369, 392.683 274.657, 381.838 264.318 C 375.733 258.499, 372.681 258.031, 340.750 258.015 C 324.639 258.006, 312 258.391, 312 258.889 M 255.460 339 C 255.460 363.475, 255.590 373.488, 255.749 361.250 C 255.908 349.013, 255.908 328.988, 255.749 316.750 C 255.590 304.513, 255.460 314.525, 255.460 339 M 395.007 309.066 C 389.648 313.646, 384.749 315.816, 378.060 316.573 C 374.702 316.953, 371.714 317.654, 371.419 318.132 C 371.123 318.609, 364.003 319, 355.596 319 C 342.057 319, 340.121 319.209, 338.655 320.829 C 336.336 323.392, 336.596 327.278, 339.250 329.727 C 342.479 332.707, 349.701 335.720, 355.500 336.508 C 358.250 336.882, 360.950 337.551, 361.500 337.996 C 362.050 338.441, 364.525 339.325, 367 339.961 C 372.991 341.501, 377.184 343.489, 384.992 348.497 C 392.427 353.265, 405.150 366.389, 408.190 372.425 C 409.319 374.666, 410.736 377.115, 411.340 377.866 C 412.495 379.304, 414.416 384.135, 416.165 390 C 416.738 391.925, 417.636 394.026, 418.159 394.669 C 418.682 395.312, 419.198 400.037, 419.305 405.169 L 419.500 414.500 411.187 414.500 C 403.341 414.500, 402.799 414.359, 401.543 412 C 400.811 410.625, 399.734 406.340, 399.149 402.479 C 397.540 391.863, 391.821 381.943, 381.848 372.471 C 372.871 363.945, 365.213 359.212, 357.500 357.421 C 355.850 357.038, 354.050 356.387, 353.500 355.974 C 352.950 355.562, 350.025 354.914, 347 354.535 C 341.203 353.809, 327.146 347.543, 326.286 345.302 C 326.011 344.586, 325.238 344, 324.567 344 C 323.080 344, 319.546 340.197, 318.625 337.607 C 318.256 336.566, 317.702 335.965, 317.395 336.271 C 315.364 338.303, 325.776 347.560, 334.999 351.922 C 338.451 353.555, 343.753 355.200, 346.780 355.578 C 349.807 355.956, 353.458 356.878, 354.892 357.627 C 356.326 358.375, 358.008 358.990, 358.629 358.994 C 360.611 359.005, 371 364.110, 371 365.073 C 371 365.583, 371.611 366, 372.357 366 C 374.572 366, 390.292 383.164, 393 388.539 C 394.375 391.267, 395.790 393.725, 396.145 394 C 396.500 394.275, 397.351 398.100, 398.035 402.500 C 398.720 406.900, 399.777 411.738, 400.384 413.250 C 401.483 415.987, 401.536 416, 411.244 416 L 421 416 421 409.684 C 421 402.536, 419.300 391.977, 417.919 390.550 C 417.414 390.027, 417 389.013, 417 388.295 C 417 387.079, 414.861 382.451, 410.373 373.954 C 402.098 358.290, 382.991 342.714, 367.373 338.901 C 364.693 338.247, 362.039 337.355, 361.475 336.920 C 360.911 336.485, 358.107 335.818, 355.244 335.438 C 350.407 334.796, 342.618 331.588, 339.387 328.906 C 338.624 328.273, 338 326.717, 338 325.449 C 338 320.722, 339.601 320.301, 359.468 319.803 C 371.740 319.496, 378.460 318.940, 379.231 318.169 C 379.874 317.526, 381.508 317, 382.862 317 C 385.509 317, 393.083 313.014, 396.750 309.690 L 399 307.651 401.314 309.826 C 402.587 311.022, 403.980 312, 404.410 312 C 404.840 312, 406.386 312.844, 407.846 313.876 C 409.306 314.907, 412.075 316.084, 414 316.491 C 415.925 316.898, 418.059 317.681, 418.743 318.232 C 420.431 319.591, 439.353 319.440, 439.812 318.064 C 440.007 317.479, 440.887 317, 441.768 317 C 444.100 317, 451.938 313.099, 456.098 309.868 L 459.696 307.073 462.390 309.885 C 463.872 311.432, 467.428 313.717, 470.292 314.963 C 473.157 316.209, 476.352 317.671, 477.393 318.212 C 480.064 319.600, 497.867 319.533, 499.270 318.130 C 500.758 316.642, 505.284 316.684, 506.800 318.200 C 508.247 319.647, 508.551 398.541, 507.113 399.430 C 506.626 399.731, 505.919 401.670, 505.544 403.739 C 505.168 405.808, 503.542 409.161, 501.930 411.191 C 500.319 413.222, 498.999 415.247, 498.998 415.691 C 498.996 416.676, 491.318 424.025, 488.518 425.723 C 486.518 426.936, 482.051 429.059, 476.750 431.317 C 475.238 431.961, 474 433.053, 474 433.744 C 474 434.435, 473.550 435, 473 435 C 472.359 435, 472 444.293, 472 460.878 C 472 480.573, 471.697 487.007, 470.730 487.809 C 470.032 488.388, 466.320 489.832, 462.480 491.018 C 458.641 492.203, 454.752 493.563, 453.837 494.041 C 452.923 494.518, 449.773 495.220, 446.837 495.601 C 443.902 495.983, 441.247 496.682, 440.937 497.154 C 440.627 497.627, 434.327 498.503, 426.937 499.101 C 419.547 499.700, 412.719 500.597, 411.764 501.095 C 409.504 502.273, 388.494 502.272, 386.236 501.094 C 385.281 500.595, 378.732 499.725, 371.682 499.160 C 364.633 498.595, 358.333 497.708, 357.682 497.190 C 357.032 496.671, 353.920 495.935, 350.766 495.553 C 347.612 495.172, 344.813 494.506, 344.545 494.073 C 344.277 493.640, 341.345 492.710, 338.029 492.006 C 334.713 491.302, 332 490.338, 332 489.863 C 332 489.389, 331.248 489, 330.329 489 C 329.410 489, 327.835 488.255, 326.829 487.345 C 325.823 486.435, 325 486.140, 325 486.690 C 325 488.631, 328.562 490.760, 333.895 492.007 C 336.862 492.701, 340.462 493.881, 341.895 494.628 C 343.328 495.376, 345.647 495.990, 347.050 495.994 C 348.452 495.997, 350.027 496.377, 350.550 496.839 C 351.731 497.882, 363.536 500, 368.165 500 C 370.054 500, 372.162 500.563, 372.850 501.250 C 373.783 502.183, 380.413 502.500, 399 502.500 C 417.587 502.500, 424.217 502.183, 425.150 501.250 C 425.838 500.563, 427.998 499.999, 429.950 499.999 C 435.089 499.997, 456.623 495.459, 458.500 493.982 C 459.050 493.550, 461.525 492.665, 464 492.016 C 473.572 489.508, 473 491.359, 473 462.911 C 473 445.790, 473.368 437.178, 474.163 435.684 C 475.716 432.768, 477.877 431.261, 481.500 430.567 C 488.808 429.166, 505.266 412.305, 506.509 404.944 C 506.875 402.781, 507.585 400.757, 508.087 400.446 C 508.614 400.121, 509 382.617, 509 359.096 C 509 311.485, 509.731 314.619, 499 316.223 C 495.425 316.758, 491.694 317.616, 490.709 318.131 C 489.724 318.646, 488.375 318.732, 487.710 318.321 C 487.046 317.910, 484.015 317.281, 480.975 316.923 C 474.377 316.145, 464.801 311.834, 462.131 308.439 C 459.729 305.386, 459.571 305.394, 455.144 308.820 C 449.358 313.298, 443.095 316.090, 437.593 316.645 C 434.792 316.927, 431.478 317.653, 430.230 318.259 C 428.546 319.075, 427.655 319.055, 426.780 318.180 C 426.131 317.531, 424.182 317, 422.449 317 C 416.588 317, 409.444 314.120, 403.332 309.292 C 401.039 307.481, 399.014 306.018, 398.832 306.041 C 398.649 306.063, 396.928 307.425, 395.007 309.066 M 283.500 427 C 288.979 432.500, 293.687 437, 293.962 437 C 294.237 437, 289.979 432.500, 284.500 427 C 279.021 421.500, 274.313 417, 274.038 417 C 273.763 417, 278.021 421.500, 283.500 427 M 511.462 436.250 L 506.500 441.500 511.750 436.538 C 516.628 431.926, 517.459 431, 516.712 431 C 516.554 431, 514.192 433.363, 511.462 436.250 M 254.500 441 C 257.766 444.300, 260.662 447, 260.937 447 C 261.212 447, 258.766 444.300, 255.500 441 C 252.234 437.700, 249.338 435, 249.063 435 C 248.788 435, 251.234 437.700, 254.500 441" stroke="none" fill="#d43117" fill-rule="evenodd"/></svg>