<?xml version="1.0" encoding="iso-8859-1"?>
<!-- Uploaded to: SVG Repo, www.svgrepo.com, Generator: SVG Repo Mixer Tools -->
<svg height="20px" width="20px" version="1.1" id="Layer_1" xmlns="http://www.w3.org/2000/svg" xmlns:xlink="http://www.w3.org/1999/xlink" 
	 viewBox="0 0 511.999 511.999" xml:space="preserve">
<path style="fill:#FF8C78;" d="M356.01,34.242C314.449,29.12,280.499,18.152,256,8.152c-24.499,10-58.449,20.967-100.009,26.089
	c-37.976,4.681-70.788,3.062-95.661,0c0,92.762,0,185.525,0,278.287c12.092,27.191,33.241,66.021,69.572,104.358
	c46.31,48.865,95.813,74.269,126.099,86.965c30.285-12.696,79.789-38.099,126.099-86.965
	c36.331-38.336,57.479-77.167,69.572-104.358c0-92.762,0-185.525,0-278.287C426.798,37.304,393.986,38.923,356.01,34.242z"/>
<path style="fill:#FFD791;" d="M256,468.195c-38.72-18.059-73.126-42.822-102.428-73.742c-24.857-26.23-45.232-56.148-60.631-89.014
	V69.511c5.086,0.184,10.169,0.276,15.237,0.276c17.258,0,34.686-1.07,51.802-3.18c32.799-4.043,65.039-11.923,96.02-23.454
	c30.981,11.532,63.221,19.412,96.02,23.454c17.117,2.11,34.546,3.18,51.802,3.18c5.068,0,10.15-0.092,15.237-0.276V305.44
	c-15.398,32.865-35.774,62.784-60.631,89.014C329.126,425.374,294.72,450.136,256,468.195z"/>
<path style="fill:#DF7A6E;" d="M256,468.195c-38.72-18.059-73.126-42.822-102.428-73.742c-24.857-26.23-45.232-56.148-60.631-89.014
	V69.511c5.086,0.184,10.169,0.276,15.237,0.276c8.112,0,16.26-0.246,24.396-0.715c1.225-11.185,2.863-22.196,4.896-33.009
	c-30.153,2.265-56.411,0.731-77.141-1.822c0,92.762,0,185.525,0,278.287c12.092,27.191,33.241,66.021,69.572,104.358
	c46.31,48.865,95.813,74.269,126.099,86.965c21.161-8.87,51.705-23.959,83.984-48.903c-12.522-3.461-24.72-8.054-36.521-13.714
	C288.478,451.426,272.641,460.434,256,468.195z"/>
<path style="fill:#F8BE73;" d="M92.942,69.511V305.44c15.398,32.865,35.774,62.784,60.631,89.014
	c29.302,30.919,63.707,55.682,102.428,73.742c16.641-7.762,32.479-16.769,47.463-26.963c-101.327-48.6-173.562-175-173.562-323.287
	c0-16.594,0.924-32.905,2.673-48.872c-8.137,0.47-16.284,0.715-24.396,0.715C103.111,69.787,98.028,69.695,92.942,69.511z"/>
<polygon style="fill:#6DDAE1;" points="256,173.385 186.429,208.171 186.429,321.225 238.607,321.225 238.607,260.35 
	273.393,260.35 273.393,321.225 325.572,321.225 325.572,208.171 "/>
<polygon style="fill:#4FC4D3;" points="186.429,208.171 186.429,321.225 213.605,321.225 213.605,194.583 "/>
<path d="M457.072,28.135c-1.749-1.547-4.079-2.27-6.397-1.984c-31.096,3.829-62.613,3.828-93.667,0
	c-33.597-4.142-66.544-12.737-97.927-25.546c-1.974-0.807-4.187-0.807-6.161,0c-31.382,12.809-64.33,21.404-97.925,25.546
	c-31.057,3.826-62.571,3.826-93.669,0c-4.79-0.59-9.149,3.27-9.149,8.091v200.023c0,4.504,3.649,8.153,8.153,8.153
	s8.153-3.649,8.153-8.153V43.354c29.441,2.934,59.167,2.596,88.506-1.02c33.928-4.182,67.223-12.722,99.011-25.389
	c31.789,12.667,65.083,21.209,99.013,25.389c29.335,3.614,59.064,3.956,88.505,1.02v267.436
	c-16.761,37.221-39.409,71.022-67.336,100.49c-34.018,35.896-74.438,64.048-120.182,83.717
	c-45.743-19.668-86.163-47.82-120.182-83.717c-27.927-29.468-50.574-63.269-67.336-100.49v-33.047c0-4.504-3.649-8.153-8.153-8.153
	s-8.153,3.649-8.153,8.153v34.786c0,1.141,0.24,2.27,0.703,3.313c17.583,39.538,41.506,75.421,71.103,106.652
	c36.364,38.373,79.722,68.275,128.864,88.876c2.002,0.839,4.301,0.839,6.304,0c49.143-20.601,92.5-50.503,128.864-88.876
	c29.598-31.231,53.52-67.114,71.103-106.652c0.464-1.044,0.703-2.172,0.703-3.313V34.242
	C459.824,31.907,458.821,29.683,457.072,28.135z"/>
<path d="M419.059,120.663c4.504,0,8.153-3.649,8.153-8.153V69.511c0-2.213-0.9-4.331-2.493-5.868
	c-1.593-1.536-3.745-2.339-5.955-2.28c-4.975,0.179-10.003,0.271-14.943,0.271c-16.93,0-34.023-1.049-50.805-3.118
	c-32.115-3.959-63.798-11.699-94.173-23.004c-1.835-0.682-3.854-0.682-5.687,0c-30.373,11.305-62.058,19.046-94.173,23.004
	c-16.79,2.069-33.883,3.118-50.805,3.118c-4.941,0-9.968-0.091-14.943-0.271c-2.232-0.062-4.361,0.744-5.955,2.28
	c-1.593,1.537-2.493,3.655-2.493,5.868V305.44c0,1.196,0.263,2.377,0.77,3.459c15.765,33.647,36.657,64.318,62.097,91.163
	c29.971,31.627,65.265,57.037,104.899,75.522c1.092,0.51,2.269,0.764,3.446,0.764s2.353-0.254,3.446-0.764
	c39.634-18.485,74.928-43.895,104.9-75.522c25.439-26.845,46.331-57.516,62.096-91.163c0.507-1.082,0.77-2.263,0.77-3.459V155.993
	c0-4.504-3.649-8.153-8.153-8.153s-8.153,3.649-8.153,8.153v147.62c-14.93,31.425-34.57,60.09-58.396,85.232
	c-27.686,29.215-60.139,52.863-96.51,70.329c-36.371-17.467-68.825-41.115-96.51-70.329c-23.826-25.141-43.465-53.807-58.396-85.232
	V77.882c2.371,0.039,4.736,0.06,7.084,0.06c17.586,0,35.351-1.09,52.798-3.241C193.353,70.71,225.304,63.025,256,51.843
	c30.696,11.181,62.647,18.867,95.022,22.858c17.441,2.151,35.205,3.241,52.799,3.241c2.347,0,4.712-0.021,7.084-0.06v34.628
	C410.906,117.014,414.555,120.663,419.059,120.663z"/>
<path d="M273.393,329.378h52.179c4.504,0,8.153-3.649,8.153-8.153V208.171c0-3.088-1.745-5.911-4.507-7.292l-69.572-34.786
	c-2.295-1.149-4.998-1.149-7.293,0l-69.572,34.786c-2.761,1.382-4.507,4.204-4.507,7.292v113.054c0,4.504,3.649,8.153,8.153,8.153
	h52.179c4.504,0,8.153-3.649,8.153-8.153v-52.722h18.48v52.722C265.24,325.729,268.889,329.378,273.393,329.378z M238.607,252.197
	c-4.504,0-8.153,3.649-8.153,8.153v52.722h-35.873v-99.861L256,182.501l61.419,30.709v99.861h-35.873V260.35
	c0-4.504-3.649-8.153-8.153-8.153H238.607z"/>
<path d="M351.654,198.932c2.887,0,5.684-1.537,7.165-4.249c2.156-3.954,0.7-8.905-3.252-11.062l-95.661-52.179
	c-2.435-1.327-5.373-1.327-7.809,0l-95.661,52.179c-3.953,2.156-5.409,7.108-3.252,11.062c2.156,3.951,7.106,5.411,11.062,3.252
	L256,147.886l91.756,50.049C348.997,198.611,350.334,198.933,351.654,198.932z"/>
</svg>