<?xml version="1.0" encoding="iso-8859-1"?>
<!-- Uploaded to: SVG Repo, www.svgrepo.com, Generator: SVG Repo Mixer Tools -->
<svg height="20px" width="20px" version="1.1" id="Layer_1" xmlns="http://www.w3.org/2000/svg" xmlns:xlink="http://www.w3.org/1999/xlink" 
	 viewBox="0 0 512 512" xml:space="preserve">
<path style="fill:#CD2900;" d="M439.242,191.326C439.242,292.528,256,503.916,256,503.916S72.758,292.528,72.758,191.326
	S154.799,8.084,256,8.084S439.242,90.125,439.242,191.326z"/>
<path d="M256,512c-2.344,0-4.574-1.018-6.108-2.789c-7.563-8.724-185.218-214.852-185.218-317.885C64.674,85.828,150.502,0,256,0
	s191.326,85.828,191.326,191.326c0,103.033-177.654,309.161-185.218,317.885C260.572,510.982,258.344,512,256,512z M256,16.168
	c-96.583,0-175.158,78.575-175.158,175.158c0,86.776,143.517,262.433,175.158,300.097
	c31.641-37.664,175.158-213.321,175.158-300.097C431.158,94.744,352.583,16.168,256,16.168z"/>
<path style="fill:#ECE5DD;" d="M256,329.297c-77.563,0-140.665-63.102-140.665-140.665S178.437,47.966,256,47.966
	s140.665,63.102,140.665,140.665S333.563,329.297,256,329.297z"/>
<path style="fill:#CC7400;" d="M256,284.777c-52.417,0-95.062-42.645-95.062-95.062c0-42.039,62.806-88.975,82.055-102.359
	l6.852-4.764c2.826-1.965,6.694,0.056,6.694,3.498v40.61c0,34.45,24.494,62.476,54.6,62.476c9.318,0,18.526-2.743,26.627-7.934
	l6.193-3.968c2.898-1.856,6.714,0.149,6.831,3.588l0.247,7.35c0.018,0.504,0.026,1.006,0.026,1.503
	C351.062,242.132,308.418,284.777,256,284.777z"/>
<path style="fill:#FFA733;" d="M256,254.596c-35.775,0-64.881-29.105-64.881-64.881c0-3.483,1.824-16.726,25.288-40.908
	c1.004-1.034,2.017-2.058,3.037-3.069c3.082-3.053,8.82-1.592,9.274,2.722c4.914,46.738,51.51,69.87,74.46,66.37
	c6.33-0.966,7.635,10.148,3.652,15.164C294.936,244.973,276.571,254.596,256,254.596z"/>
<path style="fill:#FEC377;" d="M256,240.583c-27.779,0-50.43-22.386-50.863-50.065c-0.01-0.603,0.061-1.196,0.211-1.78
	c0.489-1.908,2.034-6.277,6.835-13.202c2.936-4.236,9.294-3.712,11.563,0.916c10.781,21.999,28.447,39.319,49.704,48.832
	c5.489,2.455,5.211,10.39-0.459,12.395C267.63,239.574,261.9,240.583,256,240.583z"/>
<path d="M355.488,171.245c-0.876-2.685-3.089-4.719-5.839-5.365c-2.751-0.646-5.636,0.191-7.615,2.206
	c-8.575,8.733-19.547,13.543-30.894,13.543c-25.946,0-47.054-24.642-47.054-54.931V79.438c0-2.928-1.583-5.627-4.138-7.056
	c-2.557-1.428-5.683-1.366-8.178,0.168c-4.017,2.468-98.375,61.084-98.375,117.165c0,56.578,46.029,102.607,102.607,102.607
	s102.607-46.029,102.607-102.607C358.607,183.809,357.558,177.596,355.488,171.245z M256,276.153
	c-47.662,0-86.439-38.776-86.439-86.439c0-33.729,48.793-74.725,78.354-95.279v32.264c0,39.204,28.363,71.099,63.223,71.099
	c11.073,0,21.823-3.238,31.279-9.297c0.014,0.407,0.022,0.811,0.022,1.213C342.439,237.377,303.662,276.153,256,276.153z"/>
<path d="M387.222,203.33c-7.484,67.265-65.694,119.441-135.399,117.279c-68.941-2.139-125.085-57.819-127.763-126.741
	C121.138,118.685,181.454,56.589,256,56.589c67.597,0,123.484,51.06,131.138,116.636c0.473,4.053,3.936,7.093,8.017,7.093l0,0
	c4.83,0,8.603-4.211,8.042-9.009c-8.742-74.762-73.34-132.706-150.823-130.846c-79.626,1.912-143.921,67.275-144.579,146.921
	c-0.68,82.294,66.066,149.458,148.205,149.458c76.155,0,139.081-57.737,147.3-131.737c0.53-4.771-3.247-8.934-8.046-8.934h-0.009
	C391.14,196.171,387.676,199.249,387.222,203.33z"/>
</svg>